<svg id="Layer_1" data-name="Layer 1" xmlns="http://www.w3.org/2000/svg" viewBox="0 0 6000 1080"><defs><style>.cls-1{fill:#1c355e;}.cls-2{fill:#ff4438;}</style></defs><path class="cls-1" d="M319.2,434.53l-9.44,55.28a5,5,0,0,0,4.93,5.84h113.6a5,5,0,0,1,4.92,5.89L420,574.66a5,5,0,0,1-4.92,4.11H297.88a5,5,0,0,0-4.92,4.12l-11,61.41a5,5,0,0,0,4.92,5.88H417.18a5,5,0,0,1,4.93,5.85l-13.33,77a5,5,0,0,1-4.93,4.15h-242a5,5,0,0,1-4.92-5.87L224.9,348a5,5,0,0,1,4.93-4.13H471.29a5,5,0,0,1,4.93,5.86L462.9,426.23a5,5,0,0,1-4.93,4.15H324.13A5,5,0,0,0,319.2,434.53Z"/><path class="cls-1" d="M526.32,436.23a229.77,229.77,0,0,1,82.57-70.85Q658.54,340,717.68,340q74.19,0,116.31,35.7,40.32,34.19,43.07,92.4a5,5,0,0,1-5,5.23H762.8a5,5,0,0,1-4.54-2.92,46.06,46.06,0,0,0-19.94-21.06Q723.26,441,700.38,441q-40.73,0-69.45,26.77t-36.54,72a174.2,174.2,0,0,0-2.79,27.89q0,37.39,21.2,56.63t62.48,19.25q52.82,0,85.84-43.85a5,5,0,0,0-4-8H662.83a5,5,0,0,1-4.92-5.87l12.17-68.66a5,5,0,0,1,4.93-4.13H869a5,5,0,0,1,4.93,5.88L856.19,618a4.85,4.85,0,0,1-.62,1.69q-29,49.15-82.66,84.56Q718.79,740,647.94,740q-52.44,0-90.37-19.8t-58-55.51q-20.08-35.7-20.09-82.57a221.39,221.39,0,0,1,3.91-42.4Q493.41,481.7,526.32,436.23Z"/><path class="cls-1" d="M1305.82,351.75,1126.1,611.35a5,5,0,0,0-.81,2L1103.9,733.09a5,5,0,0,1-4.92,4.12H999.77a5,5,0,0,1-4.93-5.86l20.52-117.85a5,5,0,0,0-.19-2.46L926.88,350.51a5,5,0,0,1,4.74-6.61h114.19a5,5,0,0,1,4.82,3.66L1089,485.33a5,5,0,0,0,9,1.32l88.46-140.41a5,5,0,0,1,4.23-2.34h111A5,5,0,0,1,1305.82,351.75Z"/><path class="cls-1" d="M1604.41,540q-21.48,29.29-57.74,46.86t-84.24,17.57h-49.92a5,5,0,0,0-4.92,4.14l-22,124.51a5,5,0,0,1-4.93,4.13H1281a5,5,0,0,1-4.92-5.87L1344,348a5,5,0,0,1,4.92-4.13h159.27q61.92,0,94.28,28.18t32.36,75.59A158.08,158.08,0,0,1,1632,475,152.15,152.15,0,0,1,1604.41,540ZM1521,475a91.72,91.72,0,0,0,1.12-11.16q0-15.06-9.77-23.71t-29.84-8.65h-39.31a5,5,0,0,0-4.93,4.14L1425,512.11a5,5,0,0,0,4.93,5.85h37.56Q1513.76,518,1521,475Z"/><path class="cls-1" d="M1994.7,349.79l-13.82,77a5,5,0,0,1-4.92,4.11h-96a5,5,0,0,0-4.93,4.13l-52.65,298a5,5,0,0,1-4.92,4.13h-99.75a5,5,0,0,1-4.92-5.87l52-294.54a5,5,0,0,0-4.93-5.87h-91.83a5,5,0,0,1-4.92-5.88L1677,348a5,5,0,0,1,4.92-4.12h307.83A5,5,0,0,1,1994.7,349.79Z"/><path class="cls-1" d="M2144.79,349.77l-67.42,383.31a5,5,0,0,1-4.92,4.13h-99.74a5,5,0,0,1-4.93-5.87l68-383.31a5,5,0,0,1,4.92-4.13h99.2A5,5,0,0,1,2144.79,349.77Z"/><path class="cls-1" d="M2394.82,673.05H2262.71a5,5,0,0,0-4.47,2.75l-29.58,58.66a5,5,0,0,1-4.47,2.75H2120.73a5,5,0,0,1-4.39-7.38l207.14-383.3a5,5,0,0,1,4.4-2.63h118.95a5,5,0,0,1,4.92,4.08l71.76,383.31a5,5,0,0,1-4.91,5.92H2413.42a5,5,0,0,1-4.94-4.23l-8.72-55.7A5,5,0,0,0,2394.82,673.05Zm-9.43-88.88L2369.1,477.59a5,5,0,0,0-9.4-1.5l-54,106.58a5,5,0,0,0,4.46,7.26h70.28A5,5,0,0,0,2385.39,584.17Z"/><path class="cls-1" d="M2920.42,737.21H2817.85a5,5,0,0,1-4.5-2.83l-97.91-203a5,5,0,0,0-9.43,1.3L2670.4,733.08a5,5,0,0,1-4.93,4.13h-99.74a5,5,0,0,1-4.93-5.87l68-383.31a5,5,0,0,1,4.92-4.13h102a5,5,0,0,1,4.51,2.85l98.46,205.67a5,5,0,0,0,9.43-1.29L2883.72,348a5,5,0,0,1,4.93-4.14h99.19a5,5,0,0,1,4.92,5.87l-67.42,383.31A5,5,0,0,1,2920.42,737.21Z"/><path class="cls-2" d="M3262,434.53l-9.44,55.28a5,5,0,0,0,4.92,5.84h113.61a5,5,0,0,1,4.92,5.89l-13.25,73.12a5,5,0,0,1-4.92,4.11H3240.65a5,5,0,0,0-4.93,4.12l-11,61.41a5,5,0,0,0,4.92,5.88H3360a5,5,0,0,1,4.93,5.85l-13.33,77a5,5,0,0,1-4.93,4.15h-242a5,5,0,0,1-4.92-5.87l68-383.31a5,5,0,0,1,4.92-4.13h241.47a5,5,0,0,1,4.93,5.86l-13.32,76.47a5,5,0,0,1-4.93,4.15H3266.9A5,5,0,0,0,3262,434.53Z"/><path class="cls-2" d="M3660.63,673.05H3528.52a5,5,0,0,0-4.47,2.75l-29.58,58.66a5,5,0,0,1-4.47,2.75H3386.54a5,5,0,0,1-4.4-7.38l207.15-383.3a5,5,0,0,1,4.4-2.63h118.95a5,5,0,0,1,4.92,4.08l71.76,383.31a5,5,0,0,1-4.91,5.92H3679.23a5,5,0,0,1-4.94-4.23l-8.72-55.7A5,5,0,0,0,3660.63,673.05Zm-9.43-88.88-16.29-106.58a5,5,0,0,0-9.41-1.5l-54,106.58a5,5,0,0,0,4.47,7.26h70.28A5,5,0,0,0,3651.2,584.17Z"/><path class="cls-2" d="M3890.29,436.23a229.82,229.82,0,0,1,82.56-70.85Q4022.5,340,4081.64,340q74.19,0,116.32,35.7,40.32,34.19,43.06,92.4a5,5,0,0,1-5,5.23H4126.76a5,5,0,0,1-4.54-2.92,46,46,0,0,0-19.94-21.06q-15.06-8.37-37.94-8.37-40.73,0-69.45,26.77t-36.54,72a174.2,174.2,0,0,0-2.79,27.89q0,37.39,21.2,56.63t62.48,19.25q52.82,0,85.85-43.85a5,5,0,0,0-4-8H4026.8a5,5,0,0,1-4.93-5.87l12.18-68.66a5,5,0,0,1,4.92-4.13h194a5,5,0,0,1,4.92,5.88L4220.15,618a4.85,4.85,0,0,1-.62,1.69q-29,49.15-82.66,84.56Q4082.75,740,4011.9,740q-52.44,0-90.37-19.8t-58-55.51q-20.09-35.7-20.09-82.57a221.39,221.39,0,0,1,3.91-42.4Q3857.37,481.7,3890.29,436.23Z"/><path class="cls-2" d="M4378.79,654.09H4489A5,5,0,0,1,4494,660L4480.7,733.1a5,5,0,0,1-4.92,4.11H4253.85a5,5,0,0,1-4.93-5.87l68-383.31a5,5,0,0,1,4.93-4.13H4421a5,5,0,0,1,4.93,5.86l-52.07,298.47A5,5,0,0,0,4378.79,654.09Z"/><path class="cls-2" d="M4685.1,434.53l-9.44,55.28a5,5,0,0,0,4.93,5.84h113.6a5,5,0,0,1,4.92,5.89l-13.25,73.12a5,5,0,0,1-4.92,4.11H4663.78a5,5,0,0,0-4.92,4.12l-11,61.41a5,5,0,0,0,4.92,5.88h130.34A5,5,0,0,1,4788,656l-13.33,77a5,5,0,0,1-4.93,4.15h-242a5,5,0,0,1-4.92-5.87l68-383.31a5,5,0,0,1,4.93-4.13h241.46a5,5,0,0,1,4.93,5.86l-13.32,76.47a5,5,0,0,1-4.93,4.15H4690A5,5,0,0,0,4685.1,434.53Z"/><path class="cls-1" d="M5723.14,340a20,20,0,0,1,20,21.14A400.08,400.08,0,0,1,5343.56,740H4848.14a5,5,0,0,1-4.22-7.68c23.2-36.69,142.4-192.32,495.64-192.32,0,0-.16-116.3-222.33-190.26a5,5,0,0,1,1.58-9.74Z"/><path class="cls-2" d="M5139.55,422.05a422.94,422.94,0,0,1,61.53,31.14,263.53,263.53,0,0,1,40.8,30.79q-15.12,1.27-29.86,3c-38.65,4.41-72.47-26-72.47-64.89Z"/><path class="cls-1" d="M5818.14,390a25,25,0,1,1,25-25A25,25,0,0,1,5818.14,390Zm0-46.87A21.88,21.88,0,1,0,5840,365,21.9,21.9,0,0,0,5818.14,343.13Z"/><path class="cls-1" d="M5822.77,377.5l-6-10.22h-4V377.5h-3.26v-25h8.07a10.65,10.65,0,0,1,4.79,1,6.69,6.69,0,0,1,2.92,2.62,7.24,7.24,0,0,1,1,3.76,7,7,0,0,1-6,7.18l6.27,10.47Zm-9.91-12.84h4.81a5.45,5.45,0,0,0,4-1.31,4.67,4.67,0,0,0,1.33-3.5,4.48,4.48,0,0,0-1.31-3.44,5.71,5.71,0,0,0-4-1.22h-4.81Z"/></svg>