<svg id="Layer_1" data-name="Layer 1" xmlns="http://www.w3.org/2000/svg" viewBox="0 0 1080 800"><defs><style>.cls-1{fill:#1c355e;}.cls-2{fill:#ff4438;}</style></defs><path class="cls-1" d="M920,200a20,20,0,0,1,20,21.14A400.08,400.08,0,0,1,540.42,600H45a5,5,0,0,1-4.22-7.68C64,555.63,183.18,400,536.42,400c0,0-.16-116.3-222.33-190.26a5,5,0,0,1,1.58-9.74Z"/><path class="cls-2" d="M336.41,282.05c25,10.37,45.2,21,61.53,31.14A263.53,263.53,0,0,1,438.74,344q-15.11,1.27-29.86,3c-38.65,4.41-72.47-26-72.47-64.89Z"/><path class="cls-1" d="M1015,250a25,25,0,1,1,25-25A25,25,0,0,1,1015,250Zm0-46.87A21.88,21.88,0,1,0,1036.87,225,21.9,21.9,0,0,0,1015,203.13Z"/><path class="cls-1" d="M1019.63,237.5l-6-10.22h-3.94V237.5h-3.27v-25h8.07a10.65,10.65,0,0,1,4.79,1,6.72,6.72,0,0,1,2.93,2.62,7.25,7.25,0,0,1-5,10.94l6.28,10.47Zm-9.9-12.84h4.8a5.5,5.5,0,0,0,4-1.31,4.71,4.71,0,0,0,1.32-3.5,4.44,4.44,0,0,0-1.31-3.44,5.7,5.7,0,0,0-4-1.22h-4.8Z"/></svg>